<?xml version="1.0" standalone="no"?>
<!DOCTYPE svg PUBLIC "-//W3C//DTD SVG 20010904//EN"
 "http://www.w3.org/TR/2001/REC-SVG-20010904/DTD/svg10.dtd">
<svg version="1.0" xmlns="http://www.w3.org/2000/svg"
 width="584.000000pt" height="584.000000pt" viewBox="0 0 584.000000 584.000000"
 preserveAspectRatio="xMidYMid meet">
<metadata>
Created by potrace 1.14, written by Peter Selinger 2001-2017
</metadata>
<g transform="translate(0.000000,584.000000) scale(0.100000,-0.100000)"
fill="#000000" stroke="none">
<path d="M2760 5109 c-112 -8 -181 -18 -260 -35 -36 -8 -78 -17 -95 -20 -107
-20 -338 -107 -484 -181 -275 -141 -563 -377 -726 -598 -33 -44 -62 -82 -65
-85 -27 -25 -149 -236 -198 -341 -56 -121 -130 -332 -148 -423 -16 -81 -42
-227 -43 -241 -1 -6 -24 -9 -53 -9 -140 4 -323 -87 -456 -226 -165 -171 -240
-439 -186 -655 63 -250 308 -348 559 -223 66 33 148 90 183 127 26 28 26 26 7
-76 -9 -43 -18 -94 -21 -113 -8 -54 -7 -53 -90 -102 -325 -188 -596 -488 -650
-715 -15 -62 -8 -187 13 -234 76 -170 269 -218 458 -113 110 62 237 215 294
354 12 30 26 64 31 75 26 60 133 460 147 550 6 39 13 44 27 22 128 -211 224
-335 361 -472 144 -144 211 -198 375 -304 218 -141 525 -264 765 -306 153 -27
262 -37 410 -37 181 0 296 12 470 49 266 56 519 164 755 321 69 46 127 87 130
91 3 4 15 14 27 22 115 79 349 338 460 511 103 158 208 376 245 506 10 36 51
107 47 82 -5 -28 12 -95 38 -148 71 -147 235 -183 419 -92 96 47 181 127 255
239 57 87 71 137 44 157 -10 7 -24 10 -31 6 -7 -4 -39 -47 -71 -97 -83 -126
-140 -181 -228 -221 -108 -50 -167 -36 -191 45 -15 51 -8 235 12 335 2 12 7
37 10 56 8 51 13 82 19 110 3 14 9 50 15 80 11 59 17 90 25 130 2 14 7 36 9
50 3 14 10 50 16 80 6 30 14 69 17 85 2 17 10 55 17 85 l13 55 113 3 c127 3
150 13 150 63 0 42 -32 58 -115 57 -125 -1 -127 0 -120 22 3 11 9 32 11 47 3
15 14 66 25 113 11 47 22 92 24 100 2 8 9 40 17 70 23 88 12 127 -45 156 -53
28 -114 -2 -151 -74 -16 -31 -100 -312 -110 -367 -11 -61 -15 -65 -62 -66 -24
0 -59 -1 -76 -2 -25 0 -34 4 -37 19 -10 56 -85 285 -117 361 -72 170 -171 342
-278 483 -140 186 -347 377 -558 514 -216 140 -552 275 -772 310 -21 4 -41 8
-45 10 -7 4 -80 13 -177 22 -94 8 -260 10 -354 3z m2425 -1851 c-2 -7 -7 -24
-9 -38 -12 -57 -56 -244 -60 -247 -2 -2 -6 45 -9 104 -4 60 -9 127 -13 151
l-7 42 51 0 c37 0 50 -4 47 -12z m-4458 -320 c0 -197 17 -354 57 -523 14 -58
14 -61 -9 -90 -109 -140 -215 -209 -327 -214 -52 -2 -59 0 -86 29 -67 70 -63
211 15 499 44 164 123 307 204 372 33 26 88 52 145 69 1 0 1 -64 1 -142z m8
-1120 c-3 -18 -12 -60 -20 -93 -8 -33 -17 -76 -21 -95 -4 -19 -9 -39 -10 -45
-2 -5 -5 -19 -7 -30 -57 -244 -139 -485 -180 -531 -7 -7 -23 -28 -37 -47 -55
-76 -147 -107 -223 -76 -39 16 -50 26 -72 68 -16 31 -22 124 -11 176 18 88 82
255 97 255 5 0 9 6 9 13 0 23 100 145 190 230 79 76 258 207 282 207 5 0 6
-15 3 -32z"/>
</g>
</svg>
